<?xml version="1.0" encoding="UTF-8" standalone="no"?>
<!DOCTYPE svg PUBLIC "-//W3C//DTD SVG 1.1//EN"
 "http://www.w3.org/Graphics/SVG/1.1/DTD/svg11.dtd">
<!-- Generated by graphviz version 12.0.0 (20240803.0821)
 -->
<!-- Title: PageStack Pages: 1 -->
<svg width="522pt" height="168pt"
 viewBox="0.00 0.00 522.12 167.75" xmlns="http://www.w3.org/2000/svg" xmlns:xlink="http://www.w3.org/1999/xlink">
<g id="graph0" class="graph" transform="scale(1 1) rotate(0) translate(4 163.75)">
<title>PageStack</title>
<!-- Node1 -->
<g id="Node000001" class="node">
<title>Node1</title>
<g id="a_Node000001"><a xlink:title="Base class for all UI pages inside the application&#39;s view stack.">
<polygon fill="#999999" stroke="#666666" points="66.25,-159.75 0,-159.75 0,-139 66.25,-139 66.25,-159.75"/>
<text text-anchor="middle" x="33.12" y="-146.25" font-family="Helvetica,sans-Serif" font-size="10.00">PageStack</text>
</a>
</g>
</g>
<!-- Node2 -->
<g id="Node000002" class="node">
<title>Node2</title>
<g id="a_Node000002"><a xlink:href="classRootWindow.html" target="_top" xlink:title=" ">
<polygon fill="white" stroke="#bfbfbf" points="224.88,-90.25 147.38,-90.25 147.38,-69.5 224.88,-69.5 224.88,-90.25"/>
<text text-anchor="middle" x="186.12" y="-76.75" font-family="Helvetica,sans-Serif" font-size="10.00">RootWindow</text>
</a>
</g>
</g>
<!-- Node1&#45;&gt;Node2 -->
<g id="edge8_Node000002_Node000001" class="edge">
<title>Node1&#45;&gt;Node2</title>
<g id="a_edge8_Node000002_Node000001"><a xlink:title=" ">
<path fill="none" stroke="#9a32cd" stroke-dasharray="5,2" d="M14.86,-130.16C9.72,-122.88 6.86,-114.71 12.38,-108.25 29.34,-88.4 101.16,-82.86 146.99,-81.36"/>
<polygon fill="#9a32cd" stroke="#9a32cd" points="12.01,-132.21 21.15,-137.56 17.34,-127.67 12.01,-132.21"/>
</a>
</g>
<text text-anchor="middle" x="46.5" y="-111.5" font-family="Helvetica,sans-Serif" font-size="10.00" fill="grey"> current_page</text>
</g>
<!-- Node2&#45;&gt;Node1 -->
<g id="edge1_Node000001_Node000002" class="edge">
<title>Node2&#45;&gt;Node1</title>
<g id="a_edge1_Node000001_Node000002"><a xlink:title=" ">
<path fill="none" stroke="#9a32cd" stroke-dasharray="5,2" d="M144.31,-94.36C132.62,-98.48 120.01,-103.25 108.62,-108.25 87.83,-117.39 64.93,-129.93 49.86,-138.55"/>
<polygon fill="#9a32cd" stroke="#9a32cd" points="145.41,-97.69 153.73,-91.12 143.14,-91.07 145.41,-97.69"/>
</a>
</g>
<text text-anchor="middle" x="125.38" y="-111.5" font-family="Helvetica,sans-Serif" font-size="10.00" fill="grey"> parent</text>
</g>
<!-- Node7 -->
<g id="Node000007" class="node">
<title>Node7</title>
<g id="a_Node000007"><a xlink:href="classNavigation.html" target="_top" xlink:title="GTK navigation bar with left, center, and right controls.">
<polygon fill="white" stroke="#666666" points="220.75,-20.75 151.5,-20.75 151.5,0 220.75,0 220.75,-20.75"/>
<text text-anchor="middle" x="186.12" y="-7.25" font-family="Helvetica,sans-Serif" font-size="10.00">Navigation</text>
</a>
</g>
</g>
<!-- Node2&#45;&gt;Node7 -->
<g id="edge7_Node000007_Node000002" class="edge">
<title>Node2&#45;&gt;Node7</title>
<g id="a_edge7_Node000007_Node000002"><a xlink:title=" ">
<path fill="none" stroke="#9a32cd" stroke-dasharray="5,2" d="M161.52,-61.57C158.73,-58.54 156.3,-55.17 154.62,-51.5 149.34,-39.9 159.96,-28.65 170.28,-21.03"/>
<polygon fill="#9a32cd" stroke="#9a32cd" points="159.06,-64.06 168.84,-68.13 163.74,-58.85 159.06,-64.06"/>
</a>
</g>
<text text-anchor="middle" x="171.38" y="-42" font-family="Helvetica,sans-Serif" font-size="10.00" fill="grey"> parent</text>
</g>
<!-- Node3 -->
<g id="Node000003" class="node">
<title>Node3</title>
<g id="a_Node000003"><a xlink:href="classArcFace.html" target="_top" xlink:title=" ">
<polygon fill="white" stroke="#bfbfbf" points="162.88,-159.75 109.38,-159.75 109.38,-139 162.88,-139 162.88,-159.75"/>
<text text-anchor="middle" x="136.12" y="-146.25" font-family="Helvetica,sans-Serif" font-size="10.00">ArcFace</text>
</a>
</g>
</g>
<!-- Node3&#45;&gt;Node2 -->
<g id="edge2_Node000002_Node000003" class="edge">
<title>Node3&#45;&gt;Node2</title>
<g id="a_edge2_Node000002_Node000003"><a xlink:title=" ">
<path fill="none" stroke="#9a32cd" stroke-dasharray="5,2" d="M143.77,-128.16C146.79,-121.49 150.61,-114.25 155.12,-108.25 160.13,-101.59 166.97,-95.35 172.94,-90.51"/>
<polygon fill="#9a32cd" stroke="#9a32cd" points="140.65,-126.55 140.08,-137.13 147.12,-129.22 140.65,-126.55"/>
</a>
</g>
<text text-anchor="middle" x="174.62" y="-111.5" font-family="Helvetica,sans-Serif" font-size="10.00" fill="grey"> arcface</text>
</g>
<!-- Node4 -->
<g id="Node000004" class="node">
<title>Node4</title>
<g id="a_Node000004"><a xlink:href="classFaceAligner.html" target="_top" xlink:title=" ">
<polygon fill="white" stroke="#bfbfbf" points="253.25,-159.75 181,-159.75 181,-139 253.25,-139 253.25,-159.75"/>
<text text-anchor="middle" x="217.12" y="-146.25" font-family="Helvetica,sans-Serif" font-size="10.00">FaceAligner</text>
</a>
</g>
</g>
<!-- Node4&#45;&gt;Node2 -->
<g id="edge3_Node000002_Node000004" class="edge">
<title>Node4&#45;&gt;Node2</title>
<g id="a_edge3_Node000002_Node000004"><a xlink:title=" ">
<path fill="none" stroke="#9a32cd" stroke-dasharray="5,2" d="M207.92,-128.33C202.19,-115.85 195.07,-100.35 190.56,-90.53"/>
<polygon fill="#9a32cd" stroke="#9a32cd" points="204.7,-129.7 212.05,-137.33 211.06,-126.78 204.7,-129.7"/>
</a>
</g>
<text text-anchor="middle" x="235.62" y="-111.5" font-family="Helvetica,sans-Serif" font-size="10.00" fill="grey"> face_aligner</text>
</g>
<!-- Node5 -->
<g id="Node000005" class="node">
<title>Node5</title>
<g id="a_Node000005"><a xlink:href="classSystemMonitor.html" target="_top" xlink:title=" ">
<polygon fill="white" stroke="#bfbfbf" points="361.25,-159.75 271,-159.75 271,-139 361.25,-139 361.25,-159.75"/>
<text text-anchor="middle" x="316.12" y="-146.25" font-family="Helvetica,sans-Serif" font-size="10.00">SystemMonitor</text>
</a>
</g>
</g>
<!-- Node5&#45;&gt;Node2 -->
<g id="edge4_Node000002_Node000005" class="edge">
<title>Node5&#45;&gt;Node2</title>
<g id="a_edge4_Node000002_Node000005"><a xlink:title=" ">
<path fill="none" stroke="#9a32cd" stroke-dasharray="5,2" d="M299.37,-130.37C291.42,-122.68 281.42,-114.14 271.12,-108.25 257,-100.16 240.16,-94.1 225.21,-89.77"/>
<polygon fill="#9a32cd" stroke="#9a32cd" points="296.8,-132.76 306.32,-137.43 301.79,-127.84 296.8,-132.76"/>
</a>
</g>
<text text-anchor="middle" x="329.38" y="-111.5" font-family="Helvetica,sans-Serif" font-size="10.00" fill="grey"> system_monitor</text>
</g>
<!-- Node6 -->
<g id="Node000006" class="node">
<title>Node6</title>
<g id="a_Node000006"><a xlink:href="structCupMeasurement.html" target="_top" xlink:title="Hasil estimasi volume dan ukuran gelas dari satu siklus deteksi.">
<polygon fill="white" stroke="#666666" points="481.25,-159.75 379,-159.75 379,-139 481.25,-139 481.25,-159.75"/>
<text text-anchor="middle" x="430.12" y="-146.25" font-family="Helvetica,sans-Serif" font-size="10.00">CupMeasurement</text>
</a>
</g>
</g>
<!-- Node6&#45;&gt;Node2 -->
<g id="edge5_Node000002_Node000006" class="edge">
<title>Node6&#45;&gt;Node2</title>
<g id="a_edge5_Node000002_Node000006"><a xlink:title=" ">
<path fill="none" stroke="#9a32cd" stroke-dasharray="5,2" d="M411.48,-131.22C401.43,-122.95 388.4,-113.66 375.12,-108.25 326,-88.23 264.45,-82.54 225.2,-81.09"/>
<polygon fill="#9a32cd" stroke="#9a32cd" points="409.11,-133.8 418.97,-137.7 413.7,-128.51 409.11,-133.8"/>
</a>
</g>
<text text-anchor="middle" x="455.62" y="-111.5" font-family="Helvetica,sans-Serif" font-size="10.00" fill="grey"> last_cup_measurement</text>
</g>
<!-- Node7&#45;&gt;Node2 -->
<g id="edge6_Node000002_Node000007" class="edge">
<title>Node7&#45;&gt;Node2</title>
<g id="a_edge6_Node000002_Node000007"><a xlink:title=" ">
<path fill="none" stroke="#9a32cd" stroke-dasharray="5,2" d="M192.03,-32.22C192.47,-34.41 192.86,-36.62 193.12,-38.75 193.83,-44.37 193.83,-45.88 193.12,-51.5 192.38,-57.44 190.75,-63.93 189.26,-69.11"/>
<polygon fill="#9a32cd" stroke="#9a32cd" points="195.45,-31.46 189.62,-22.61 188.65,-33.16 195.45,-31.46"/>
</a>
</g>
<text text-anchor="middle" x="220.5" y="-42" font-family="Helvetica,sans-Serif" font-size="10.00" fill="grey"> navigation</text>
</g>
</g>
</svg>
