<?xml version="1.0" encoding="UTF-8" standalone="no"?>
<!DOCTYPE svg PUBLIC "-//W3C//DTD SVG 1.1//EN"
 "http://www.w3.org/Graphics/SVG/1.1/DTD/svg11.dtd">
<!-- Generated by graphviz version 12.0.0 (20240803.0821)
 -->
<!-- Title: module/aruco/src/aruco_detector.cpp Pages: 1 -->
<svg width="861pt" height="155pt"
 viewBox="0.00 0.00 861.38 155.00" xmlns="http://www.w3.org/2000/svg" xmlns:xlink="http://www.w3.org/1999/xlink">
<g id="graph0" class="graph" transform="scale(1 1) rotate(0) translate(4 151)">
<title>module/aruco/src/aruco_detector.cpp</title>
<!-- Node1 -->
<g id="Node000001" class="node">
<title>Node1</title>
<g id="a_Node000001"><a xlink:title="Implementasi ArucoDetector — ArUco marker detection &amp; pose estimation.">
<polygon fill="#999999" stroke="#666666" points="608.88,-147 478.88,-147 478.88,-113.5 608.88,-113.5 608.88,-147"/>
<text text-anchor="start" x="486.88" y="-133.5" font-family="Helvetica,sans-Serif" font-size="10.00">module/aruco/src/aruco</text>
<text text-anchor="middle" x="543.88" y="-120.75" font-family="Helvetica,sans-Serif" font-size="10.00">_detector.cpp</text>
</a>
</g>
</g>
<!-- Node2 -->
<g id="Node000002" class="node">
<title>Node2</title>
<g id="a_Node000002"><a xlink:href="aruco__detector_8h.html" target="_top" xlink:title="Public API untuk mod_aruco — ArUco marker detection &amp; pose estimation.">
<polygon fill="white" stroke="#666666" points="303.38,-77.5 176.38,-77.5 176.38,-56.75 303.38,-56.75 303.38,-77.5"/>
<text text-anchor="middle" x="239.88" y="-64" font-family="Helvetica,sans-Serif" font-size="10.00">aruco/aruco_detector.h</text>
</a>
</g>
</g>
<!-- Node1&#45;&gt;Node2 -->
<g id="edge1_Node000001_Node000002" class="edge">
<title>Node1&#45;&gt;Node2</title>
<g id="a_edge1_Node000001_Node000002"><a xlink:title=" ">
<path fill="none" stroke="#63b8ff" d="M478.66,-116.14C425.51,-105.45 351.07,-90.48 299.49,-80.11"/>
<polygon fill="#63b8ff" stroke="#63b8ff" points="300.5,-76.75 290.01,-78.21 299.12,-83.61 300.5,-76.75"/>
</a>
</g>
</g>
<!-- Node8 -->
<g id="Node000008" class="node">
<title>Node8</title>
<g id="a_Node000008"><a xlink:title=" ">
<polygon fill="#e0e0e0" stroke="#999999" points="420.12,-77.5 321.62,-77.5 321.62,-56.75 420.12,-56.75 420.12,-77.5"/>
<text text-anchor="middle" x="370.88" y="-64" font-family="Helvetica,sans-Serif" font-size="10.00">yaml&#45;cpp/yaml.h</text>
</a>
</g>
</g>
<!-- Node1&#45;&gt;Node8 -->
<g id="edge7_Node000001_Node000008" class="edge">
<title>Node1&#45;&gt;Node8</title>
<g id="a_edge7_Node000001_Node000008"><a xlink:title=" ">
<path fill="none" stroke="#63b8ff" d="M497.97,-113.03C470.29,-103.25 435.44,-90.94 409.24,-81.68"/>
<polygon fill="#63b8ff" stroke="#63b8ff" points="410.61,-78.45 400.01,-78.42 408.27,-85.05 410.61,-78.45"/>
</a>
</g>
</g>
<!-- Node9 -->
<g id="Node000009" class="node">
<title>Node9</title>
<g id="a_Node000009"><a xlink:title=" ">
<polygon fill="#e0e0e0" stroke="#999999" points="497.62,-77.5 438.12,-77.5 438.12,-56.75 497.62,-56.75 497.62,-77.5"/>
<text text-anchor="middle" x="467.88" y="-64" font-family="Helvetica,sans-Serif" font-size="10.00">iostream</text>
</a>
</g>
</g>
<!-- Node1&#45;&gt;Node9 -->
<g id="edge8_Node000001_Node000009" class="edge">
<title>Node1&#45;&gt;Node9</title>
<g id="a_edge8_Node000001_Node000009"><a xlink:title=" ">
<path fill="none" stroke="#63b8ff" d="M523.91,-113.19C513.16,-104.55 499.9,-93.88 488.98,-85.1"/>
<polygon fill="#63b8ff" stroke="#63b8ff" points="491.28,-82.46 481.29,-78.92 486.89,-87.91 491.28,-82.46"/>
</a>
</g>
</g>
<!-- Node10 -->
<g id="Node000010" class="node">
<title>Node10</title>
<g id="a_Node000010"><a xlink:title=" ">
<polygon fill="#e0e0e0" stroke="#999999" points="571.75,-77.5 516,-77.5 516,-56.75 571.75,-56.75 571.75,-77.5"/>
<text text-anchor="middle" x="543.88" y="-64" font-family="Helvetica,sans-Serif" font-size="10.00">numeric</text>
</a>
</g>
</g>
<!-- Node1&#45;&gt;Node10 -->
<g id="edge9_Node000001_Node000010" class="edge">
<title>Node1&#45;&gt;Node10</title>
<g id="a_edge9_Node000001_Node000010"><a xlink:title=" ">
<path fill="none" stroke="#63b8ff" d="M543.88,-113.19C543.88,-105.85 543.88,-97.07 543.88,-89.21"/>
<polygon fill="#63b8ff" stroke="#63b8ff" points="547.38,-89.48 543.88,-79.48 540.38,-89.48 547.38,-89.48"/>
</a>
</g>
</g>
<!-- Node11 -->
<g id="Node000011" class="node">
<title>Node11</title>
<g id="a_Node000011"><a xlink:title=" ">
<polygon fill="#e0e0e0" stroke="#999999" points="653.5,-77.5 590.25,-77.5 590.25,-56.75 653.5,-56.75 653.5,-77.5"/>
<text text-anchor="middle" x="621.88" y="-64" font-family="Helvetica,sans-Serif" font-size="10.00">algorithm</text>
</a>
</g>
</g>
<!-- Node1&#45;&gt;Node11 -->
<g id="edge10_Node000001_Node000011" class="edge">
<title>Node1&#45;&gt;Node11</title>
<g id="a_edge10_Node000001_Node000011"><a xlink:title=" ">
<path fill="none" stroke="#63b8ff" d="M564.37,-113.19C575.51,-104.46 589.28,-93.67 600.55,-84.84"/>
<polygon fill="#63b8ff" stroke="#63b8ff" points="602.41,-87.82 608.12,-78.9 598.09,-82.31 602.41,-87.82"/>
</a>
</g>
</g>
<!-- Node12 -->
<g id="Node000012" class="node">
<title>Node12</title>
<g id="a_Node000012"><a xlink:title=" ">
<polygon fill="#e0e0e0" stroke="#999999" points="726,-77.5 671.75,-77.5 671.75,-56.75 726,-56.75 726,-77.5"/>
<text text-anchor="middle" x="698.88" y="-64" font-family="Helvetica,sans-Serif" font-size="10.00">fstream</text>
</a>
</g>
</g>
<!-- Node1&#45;&gt;Node12 -->
<g id="edge11_Node000001_Node000012" class="edge">
<title>Node1&#45;&gt;Node12</title>
<g id="a_edge11_Node000001_Node000012"><a xlink:title=" ">
<path fill="none" stroke="#63b8ff" d="M585.01,-113.03C609.47,-103.38 640.19,-91.27 663.56,-82.05"/>
<polygon fill="#63b8ff" stroke="#63b8ff" points="664.62,-85.39 672.64,-78.47 662.05,-78.88 664.62,-85.39"/>
</a>
</g>
</g>
<!-- Node13 -->
<g id="Node000013" class="node">
<title>Node13</title>
<g id="a_Node000013"><a xlink:title=" ">
<polygon fill="#e0e0e0" stroke="#999999" points="853.38,-77.5 744.38,-77.5 744.38,-56.75 853.38,-56.75 853.38,-77.5"/>
<text text-anchor="middle" x="798.88" y="-64" font-family="Helvetica,sans-Serif" font-size="10.00">nlohmann/json.hpp</text>
</a>
</g>
</g>
<!-- Node1&#45;&gt;Node13 -->
<g id="edge12_Node000001_Node000013" class="edge">
<title>Node1&#45;&gt;Node13</title>
<g id="a_edge12_Node000001_Node000013"><a xlink:title=" ">
<path fill="none" stroke="#63b8ff" d="M609.21,-113.59C652.01,-103.33 707.19,-90.1 746.98,-80.56"/>
<polygon fill="#63b8ff" stroke="#63b8ff" points="747.65,-84 756.56,-78.27 746.02,-77.2 747.65,-84"/>
</a>
</g>
</g>
<!-- Node3 -->
<g id="Node000003" class="node">
<title>Node3</title>
<g id="a_Node000003"><a xlink:title=" ">
<polygon fill="#e0e0e0" stroke="#999999" points="37.75,-20.75 0,-20.75 0,0 37.75,0 37.75,-20.75"/>
<text text-anchor="middle" x="18.88" y="-7.25" font-family="Helvetica,sans-Serif" font-size="10.00">map</text>
</a>
</g>
</g>
<!-- Node2&#45;&gt;Node3 -->
<g id="edge2_Node000002_Node000003" class="edge">
<title>Node2&#45;&gt;Node3</title>
<g id="a_edge2_Node000002_Node000003"><a xlink:title=" ">
<path fill="none" stroke="#63b8ff" d="M192.76,-56.32C155.95,-48.38 103.3,-36.39 48.97,-21.16"/>
<polygon fill="#63b8ff" stroke="#63b8ff" points="50.11,-17.84 39.54,-18.48 48.2,-24.58 50.11,-17.84"/>
</a>
</g>
</g>
<!-- Node4 -->
<g id="Node000004" class="node">
<title>Node4</title>
<g id="a_Node000004"><a xlink:title=" ">
<polygon fill="#e0e0e0" stroke="#999999" points="164,-20.75 55.75,-20.75 55.75,0 164,0 164,-20.75"/>
<text text-anchor="middle" x="109.88" y="-7.25" font-family="Helvetica,sans-Serif" font-size="10.00">opencv2/aruco.hpp</text>
</a>
</g>
</g>
<!-- Node2&#45;&gt;Node4 -->
<g id="edge3_Node000002_Node000004" class="edge">
<title>Node2&#45;&gt;Node4</title>
<g id="a_edge3_Node000002_Node000004"><a xlink:title=" ">
<path fill="none" stroke="#63b8ff" d="M216.63,-56.34C196.21,-47.73 166.24,-35.11 143.25,-25.43"/>
<polygon fill="#63b8ff" stroke="#63b8ff" points="144.88,-22.32 134.31,-21.67 142.17,-28.77 144.88,-22.32"/>
</a>
</g>
</g>
<!-- Node5 -->
<g id="Node000005" class="node">
<title>Node5</title>
<g id="a_Node000005"><a xlink:title=" ">
<polygon fill="#e0e0e0" stroke="#999999" points="297.75,-20.75 182,-20.75 182,0 297.75,0 297.75,-20.75"/>
<text text-anchor="middle" x="239.88" y="-7.25" font-family="Helvetica,sans-Serif" font-size="10.00">opencv2/opencv.hpp</text>
</a>
</g>
</g>
<!-- Node2&#45;&gt;Node5 -->
<g id="edge4_Node000002_Node000005" class="edge">
<title>Node2&#45;&gt;Node5</title>
<g id="a_edge4_Node000002_Node000005"><a xlink:title=" ">
<path fill="none" stroke="#63b8ff" d="M239.88,-56.34C239.88,-49.72 239.88,-40.72 239.88,-32.52"/>
<polygon fill="#63b8ff" stroke="#63b8ff" points="243.38,-32.59 239.88,-22.59 236.38,-32.59 243.38,-32.59"/>
</a>
</g>
</g>
<!-- Node6 -->
<g id="Node000006" class="node">
<title>Node6</title>
<g id="a_Node000006"><a xlink:title=" ">
<polygon fill="#e0e0e0" stroke="#999999" points="359.75,-20.75 316,-20.75 316,0 359.75,0 359.75,-20.75"/>
<text text-anchor="middle" x="337.88" y="-7.25" font-family="Helvetica,sans-Serif" font-size="10.00">string</text>
</a>
</g>
</g>
<!-- Node2&#45;&gt;Node6 -->
<g id="edge5_Node000002_Node000006" class="edge">
<title>Node2&#45;&gt;Node6</title>
<g id="a_edge5_Node000002_Node000006"><a xlink:title=" ">
<path fill="none" stroke="#63b8ff" d="M257.4,-56.34C272.17,-48.08 293.56,-36.13 310.57,-26.63"/>
<polygon fill="#63b8ff" stroke="#63b8ff" points="312.16,-29.75 319.18,-21.82 308.75,-23.64 312.16,-29.75"/>
</a>
</g>
</g>
<!-- Node7 -->
<g id="Node000007" class="node">
<title>Node7</title>
<g id="a_Node000007"><a xlink:title=" ">
<polygon fill="#e0e0e0" stroke="#999999" points="424.25,-20.75 377.5,-20.75 377.5,0 424.25,0 424.25,-20.75"/>
<text text-anchor="middle" x="400.88" y="-7.25" font-family="Helvetica,sans-Serif" font-size="10.00">vector</text>
</a>
</g>
</g>
<!-- Node2&#45;&gt;Node7 -->
<g id="edge6_Node000002_Node000007" class="edge">
<title>Node2&#45;&gt;Node7</title>
<g id="a_edge6_Node000002_Node000007"><a xlink:title=" ">
<path fill="none" stroke="#63b8ff" d="M268.66,-56.34C295.97,-47.05 337.04,-33.08 366.16,-23.18"/>
<polygon fill="#63b8ff" stroke="#63b8ff" points="367.28,-26.5 375.62,-19.96 365.03,-19.87 367.28,-26.5"/>
</a>
</g>
</g>
</g>
</svg>
