<?xml version="1.0" encoding="UTF-8" standalone="no"?>
<!DOCTYPE svg PUBLIC "-//W3C//DTD SVG 1.1//EN"
 "http://www.w3.org/Graphics/SVG/1.1/DTD/svg11.dtd">
<!-- Generated by graphviz version 12.0.0 (20240803.0821)
 -->
<!-- Title: MainSetting Pages: 1 -->
<svg width="585pt" height="168pt"
 viewBox="0.00 0.00 585.25 167.75" xmlns="http://www.w3.org/2000/svg" xmlns:xlink="http://www.w3.org/1999/xlink">
<g id="graph0" class="graph" transform="scale(1 1) rotate(0) translate(4 163.75)">
<title>MainSetting</title>
<!-- Node1 -->
<g id="Node000001" class="node">
<title>Node1</title>
<g id="a_Node000001"><a xlink:title=" ">
<polygon fill="#999999" stroke="#666666" points="74.5,-90.25 0,-90.25 0,-69.5 74.5,-69.5 74.5,-90.25"/>
<text text-anchor="middle" x="37.25" y="-76.75" font-family="Helvetica,sans-Serif" font-size="10.00">MainSetting</text>
</a>
</g>
</g>
<!-- Node2 -->
<g id="Node000002" class="node">
<title>Node2</title>
<g id="a_Node000002"><a xlink:href="classPageStack.html" target="_top" xlink:title="Base class for all UI pages inside the application&#39;s view stack.">
<polygon fill="white" stroke="#666666" points="103.38,-159.75 37.12,-159.75 37.12,-139 103.38,-139 103.38,-159.75"/>
<text text-anchor="middle" x="70.25" y="-146.25" font-family="Helvetica,sans-Serif" font-size="10.00">PageStack</text>
</a>
</g>
</g>
<!-- Node2&#45;&gt;Node1 -->
<g id="edge1_Node000001_Node000002" class="edge">
<title>Node2&#45;&gt;Node1</title>
<g id="a_edge1_Node000001_Node000002"><a xlink:title=" ">
<path fill="none" stroke="#63b8ff" d="M56.11,-129.4C54.36,-126.65 52.68,-123.8 51.25,-121 46.23,-111.14 42.28,-99.06 39.88,-90.74"/>
<polygon fill="#63b8ff" stroke="#63b8ff" points="53.09,-131.18 61.67,-137.4 58.84,-127.19 53.09,-131.18"/>
</a>
</g>
</g>
<!-- Node3 -->
<g id="Node000003" class="node">
<title>Node3</title>
<g id="a_Node000003"><a xlink:href="classRootWindow.html" target="_top" xlink:title=" ">
<polygon fill="white" stroke="#bfbfbf" points="288,-90.25 210.5,-90.25 210.5,-69.5 288,-69.5 288,-90.25"/>
<text text-anchor="middle" x="249.25" y="-76.75" font-family="Helvetica,sans-Serif" font-size="10.00">RootWindow</text>
</a>
</g>
</g>
<!-- Node2&#45;&gt;Node3 -->
<g id="edge9_Node000003_Node000002" class="edge">
<title>Node2&#45;&gt;Node3</title>
<g id="a_edge9_Node000003_Node000002"><a xlink:title=" ">
<path fill="none" stroke="#9a32cd" stroke-dasharray="5,2" d="M64.67,-127.46C64.1,-120.63 65.02,-113.47 69.5,-108.25 87.24,-87.6 162.69,-82.35 210.02,-81.12"/>
<polygon fill="#9a32cd" stroke="#9a32cd" points="61.19,-127.89 66.47,-137.08 68.07,-126.6 61.19,-127.89"/>
</a>
</g>
<text text-anchor="middle" x="103.62" y="-111.5" font-family="Helvetica,sans-Serif" font-size="10.00" fill="grey"> current_page</text>
</g>
<!-- Node3&#45;&gt;Node2 -->
<g id="edge2_Node000002_Node000003" class="edge">
<title>Node3&#45;&gt;Node2</title>
<g id="a_edge2_Node000002_Node000003"><a xlink:title=" ">
<path fill="none" stroke="#9a32cd" stroke-dasharray="5,2" d="M209.98,-94.43C197.7,-98.75 184.13,-103.62 171.75,-108.25 145.13,-118.21 114.86,-130.27 94.35,-138.56"/>
<polygon fill="#9a32cd" stroke="#9a32cd" points="211.11,-97.74 219.39,-91.14 208.79,-91.14 211.11,-97.74"/>
</a>
</g>
<text text-anchor="middle" x="188.5" y="-111.5" font-family="Helvetica,sans-Serif" font-size="10.00" fill="grey"> parent</text>
</g>
<!-- Node8 -->
<g id="Node000008" class="node">
<title>Node8</title>
<g id="a_Node000008"><a xlink:href="classNavigation.html" target="_top" xlink:title="GTK navigation bar with left, center, and right controls.">
<polygon fill="white" stroke="#666666" points="283.88,-20.75 214.62,-20.75 214.62,0 283.88,0 283.88,-20.75"/>
<text text-anchor="middle" x="249.25" y="-7.25" font-family="Helvetica,sans-Serif" font-size="10.00">Navigation</text>
</a>
</g>
</g>
<!-- Node3&#45;&gt;Node8 -->
<g id="edge8_Node000008_Node000003" class="edge">
<title>Node3&#45;&gt;Node8</title>
<g id="a_edge8_Node000008_Node000003"><a xlink:title=" ">
<path fill="none" stroke="#9a32cd" stroke-dasharray="5,2" d="M224.65,-61.57C221.86,-58.54 219.42,-55.17 217.75,-51.5 212.46,-39.9 223.09,-28.65 233.4,-21.03"/>
<polygon fill="#9a32cd" stroke="#9a32cd" points="222.19,-64.06 231.97,-68.13 226.86,-58.85 222.19,-64.06"/>
</a>
</g>
<text text-anchor="middle" x="234.5" y="-42" font-family="Helvetica,sans-Serif" font-size="10.00" fill="grey"> parent</text>
</g>
<!-- Node4 -->
<g id="Node000004" class="node">
<title>Node4</title>
<g id="a_Node000004"><a xlink:href="classArcFace.html" target="_top" xlink:title=" ">
<polygon fill="white" stroke="#bfbfbf" points="226,-159.75 172.5,-159.75 172.5,-139 226,-139 226,-159.75"/>
<text text-anchor="middle" x="199.25" y="-146.25" font-family="Helvetica,sans-Serif" font-size="10.00">ArcFace</text>
</a>
</g>
</g>
<!-- Node4&#45;&gt;Node3 -->
<g id="edge3_Node000003_Node000004" class="edge">
<title>Node4&#45;&gt;Node3</title>
<g id="a_edge3_Node000003_Node000004"><a xlink:title=" ">
<path fill="none" stroke="#9a32cd" stroke-dasharray="5,2" d="M206.9,-128.16C209.91,-121.49 213.74,-114.25 218.25,-108.25 223.26,-101.59 230.09,-95.35 236.07,-90.51"/>
<polygon fill="#9a32cd" stroke="#9a32cd" points="203.78,-126.55 203.2,-137.13 210.25,-129.22 203.78,-126.55"/>
</a>
</g>
<text text-anchor="middle" x="237.75" y="-111.5" font-family="Helvetica,sans-Serif" font-size="10.00" fill="grey"> arcface</text>
</g>
<!-- Node5 -->
<g id="Node000005" class="node">
<title>Node5</title>
<g id="a_Node000005"><a xlink:href="classFaceAligner.html" target="_top" xlink:title=" ">
<polygon fill="white" stroke="#bfbfbf" points="316.38,-159.75 244.12,-159.75 244.12,-139 316.38,-139 316.38,-159.75"/>
<text text-anchor="middle" x="280.25" y="-146.25" font-family="Helvetica,sans-Serif" font-size="10.00">FaceAligner</text>
</a>
</g>
</g>
<!-- Node5&#45;&gt;Node3 -->
<g id="edge4_Node000003_Node000005" class="edge">
<title>Node5&#45;&gt;Node3</title>
<g id="a_edge4_Node000003_Node000005"><a xlink:title=" ">
<path fill="none" stroke="#9a32cd" stroke-dasharray="5,2" d="M271.05,-128.33C265.31,-115.85 258.19,-100.35 253.68,-90.53"/>
<polygon fill="#9a32cd" stroke="#9a32cd" points="267.82,-129.7 275.18,-137.33 274.18,-126.78 267.82,-129.7"/>
</a>
</g>
<text text-anchor="middle" x="298.75" y="-111.5" font-family="Helvetica,sans-Serif" font-size="10.00" fill="grey"> face_aligner</text>
</g>
<!-- Node6 -->
<g id="Node000006" class="node">
<title>Node6</title>
<g id="a_Node000006"><a xlink:href="classSystemMonitor.html" target="_top" xlink:title=" ">
<polygon fill="white" stroke="#bfbfbf" points="424.38,-159.75 334.12,-159.75 334.12,-139 424.38,-139 424.38,-159.75"/>
<text text-anchor="middle" x="379.25" y="-146.25" font-family="Helvetica,sans-Serif" font-size="10.00">SystemMonitor</text>
</a>
</g>
</g>
<!-- Node6&#45;&gt;Node3 -->
<g id="edge5_Node000003_Node000006" class="edge">
<title>Node6&#45;&gt;Node3</title>
<g id="a_edge5_Node000003_Node000006"><a xlink:title=" ">
<path fill="none" stroke="#9a32cd" stroke-dasharray="5,2" d="M362.49,-130.37C354.55,-122.68 344.55,-114.14 334.25,-108.25 320.12,-100.16 303.28,-94.1 288.34,-89.77"/>
<polygon fill="#9a32cd" stroke="#9a32cd" points="359.93,-132.76 369.44,-137.43 364.92,-127.84 359.93,-132.76"/>
</a>
</g>
<text text-anchor="middle" x="392.5" y="-111.5" font-family="Helvetica,sans-Serif" font-size="10.00" fill="grey"> system_monitor</text>
</g>
<!-- Node7 -->
<g id="Node000007" class="node">
<title>Node7</title>
<g id="a_Node000007"><a xlink:href="structCupMeasurement.html" target="_top" xlink:title="Hasil estimasi volume dan ukuran gelas dari satu siklus deteksi.">
<polygon fill="white" stroke="#666666" points="544.38,-159.75 442.12,-159.75 442.12,-139 544.38,-139 544.38,-159.75"/>
<text text-anchor="middle" x="493.25" y="-146.25" font-family="Helvetica,sans-Serif" font-size="10.00">CupMeasurement</text>
</a>
</g>
</g>
<!-- Node7&#45;&gt;Node3 -->
<g id="edge6_Node000003_Node000007" class="edge">
<title>Node7&#45;&gt;Node3</title>
<g id="a_edge6_Node000003_Node000007"><a xlink:title=" ">
<path fill="none" stroke="#9a32cd" stroke-dasharray="5,2" d="M474.61,-131.22C464.56,-122.95 451.52,-113.66 438.25,-108.25 389.13,-88.23 327.58,-82.54 288.33,-81.09"/>
<polygon fill="#9a32cd" stroke="#9a32cd" points="472.24,-133.8 482.09,-137.7 476.82,-128.51 472.24,-133.8"/>
</a>
</g>
<text text-anchor="middle" x="518.75" y="-111.5" font-family="Helvetica,sans-Serif" font-size="10.00" fill="grey"> last_cup_measurement</text>
</g>
<!-- Node8&#45;&gt;Node3 -->
<g id="edge7_Node000003_Node000008" class="edge">
<title>Node8&#45;&gt;Node3</title>
<g id="a_edge7_Node000003_Node000008"><a xlink:title=" ">
<path fill="none" stroke="#9a32cd" stroke-dasharray="5,2" d="M255.15,-32.22C255.6,-34.41 255.98,-36.62 256.25,-38.75 256.96,-44.37 256.96,-45.88 256.25,-51.5 255.5,-57.44 253.88,-63.93 252.38,-69.11"/>
<polygon fill="#9a32cd" stroke="#9a32cd" points="258.57,-31.46 252.75,-22.61 251.78,-33.16 258.57,-31.46"/>
</a>
</g>
<text text-anchor="middle" x="283.62" y="-42" font-family="Helvetica,sans-Serif" font-size="10.00" fill="grey"> navigation</text>
</g>
</g>
</svg>
