<?xml version="1.0" encoding="UTF-8" standalone="no"?>
<!DOCTYPE svg PUBLIC "-//W3C//DTD SVG 1.1//EN"
 "http://www.w3.org/Graphics/SVG/1.1/DTD/svg11.dtd">
<!-- Generated by graphviz version 12.0.0 (20240803.0821)
 -->
<!-- Title: CoffeePreferencePage Pages: 1 -->
<!--zoomable 168 -->

<svg id="main" version="1.1" xmlns="http://www.w3.org/2000/svg" xmlns:xlink="http://www.w3.org/1999/xlink" xml:space="preserve" onload="init(evt)">
<style type="text/css"><![CDATA[
.node, .edge {opacity: 0.7;}
.node.selected, .edge.selected {opacity: 1;}
.edge:hover path { stroke: red; }
.edge:hover polygon { stroke: red; fill: red; }
]]></style>

<defs>
  <circle id="rim" cx="0" cy="0" r="7"/>
  <circle id="rim2" cx="0" cy="0" r="3.5"/>
  <g id="zoomPlus">
    <use xlink:href="#rim" fill="#404040"><set attributeName="fill" to="#808080" begin="zoomplus.mouseover" end="zoomplus.mouseout"/></use>
    <path d="M-4,0h8M0,-4v8" fill="none" stroke="white" stroke-width="1.5" pointer-events="none"/>
  </g>
  <g id="zoomMin">
    <use xlink:href="#rim" fill="#404040"><set attributeName="fill" to="#808080" begin="zoomminus.mouseover" end="zoomminus.mouseout"/></use>
    <path d="M-4,0h8" fill="none" stroke="white" stroke-width="1.5" pointer-events="none"/>
  </g>
  <g id="arrowUp" transform="translate(30 24)">
    <use xlink:href="#rim"/>
    <path pointer-events="none" fill="none" stroke="white" stroke-width="1.5" d="M0,-3.0v7 M-2.5,-0.5L0,-3.0L2.5,-0.5"/>
  </g>
  <g id="arrowRight" transform="rotate(90) translate(36 -43)">
    <use xlink:href="#rim"/>
    <path pointer-events="none" fill="none" stroke="white" stroke-width="1.5" d="M0,-3.0v7 M-2.5,-0.5L0,-3.0L2.5,-0.5"/>
  </g>
  <g id="arrowDown" transform="rotate(180) translate(-30 -48)">
    <use xlink:href="#rim"/>
    <path pointer-events="none" fill="none" stroke="white" stroke-width="1.5" d="M0,-3.0v7 M-2.5,-0.5L0,-3.0L2.5,-0.5"/>
  </g>
  <g id="arrowLeft" transform="rotate(270) translate(-36 17)">
    <use xlink:href="#rim"/>
    <path pointer-events="none" fill="none" stroke="white" stroke-width="1.5" d="M0,-3.0v7 M-2.5,-0.5L0,-3.0L2.5,-0.5"/>
  </g>
  <g id="resetDef">
    <use xlink:href="#rim2" fill="#404040"><set attributeName="fill" to="#808080" begin="reset.mouseover" end="reset.mouseout"/></use>
  </g>
</defs>
<script type="application/ecmascript">
var viewWidth = 610;
var viewHeight = 168;
var sectionId = 'dynsection-1';
</script>
<script type="application/ecmascript" xlink:href="svg.min.js"/>
<svg id="graph" class="graph">
<g id="viewport">
<title>CoffeePreferencePage</title>
<!-- Node1 -->
<g id="Node000001" class="node">
<title>Node1</title>
<g id="a_Node000001"><a xlink:title=" ">
<polygon fill="#999999" stroke="#666666" points="123.25,-90.25 0,-90.25 0,-69.5 123.25,-69.5 123.25,-90.25"/>
<text text-anchor="middle" x="61.62" y="-76.75" font-family="Helvetica,sans-Serif" font-size="10.00">CoffeePreferencePage</text>
</a>
</g>
</g>
<!-- Node2 -->
<g id="Node000002" class="node">
<title>Node2</title>
<g id="a_Node000002"><a xlink:href="classPageStack.html" target="_top" xlink:title="Base class for all UI pages inside the application&#39;s view stack.">
<polygon fill="white" stroke="#666666" points="127.75,-159.75 61.5,-159.75 61.5,-139 127.75,-139 127.75,-159.75"/>
<text text-anchor="middle" x="94.62" y="-146.25" font-family="Helvetica,sans-Serif" font-size="10.00">PageStack</text>
</a>
</g>
</g>
<!-- Node2&#45;&gt;Node1 -->
<g id="edge1_Node000001_Node000002" class="edge">
<title>Node2&#45;&gt;Node1</title>
<g id="a_edge1_Node000001_Node000002"><a xlink:title=" ">
<path fill="none" stroke="#63b8ff" d="M80.49,-129.4C78.73,-126.65 77.05,-123.8 75.62,-121 70.6,-111.14 66.66,-99.06 64.25,-90.74"/>
<polygon fill="#63b8ff" stroke="#63b8ff" points="77.47,-131.18 86.04,-137.4 83.22,-127.19 77.47,-131.18"/>
</a>
</g>
</g>
<!-- Node3 -->
<g id="Node000003" class="node">
<title>Node3</title>
<g id="a_Node000003"><a xlink:href="classRootWindow.html" target="_top" xlink:title=" ">
<polygon fill="white" stroke="#bfbfbf" points="312.38,-90.25 234.88,-90.25 234.88,-69.5 312.38,-69.5 312.38,-90.25"/>
<text text-anchor="middle" x="273.62" y="-76.75" font-family="Helvetica,sans-Serif" font-size="10.00">RootWindow</text>
</a>
</g>
</g>
<!-- Node2&#45;&gt;Node3 -->
<g id="edge9_Node000003_Node000002" class="edge">
<title>Node2&#45;&gt;Node3</title>
<g id="a_edge9_Node000003_Node000002"><a xlink:title=" ">
<path fill="none" stroke="#9a32cd" stroke-dasharray="5,2" d="M89.05,-127.46C88.48,-120.63 89.39,-113.47 93.88,-108.25 111.62,-87.6 187.06,-82.35 234.39,-81.12"/>
<polygon fill="#9a32cd" stroke="#9a32cd" points="85.57,-127.89 90.85,-137.08 92.45,-126.6 85.57,-127.89"/>
</a>
</g>
<text text-anchor="middle" x="128" y="-111.5" font-family="Helvetica,sans-Serif" font-size="10.00" fill="grey"> current_page</text>
</g>
<!-- Node3&#45;&gt;Node2 -->
<g id="edge2_Node000002_Node000003" class="edge">
<title>Node3&#45;&gt;Node2</title>
<g id="a_edge2_Node000002_Node000003"><a xlink:title=" ">
<path fill="none" stroke="#9a32cd" stroke-dasharray="5,2" d="M234.35,-94.43C222.08,-98.75 208.51,-103.62 196.12,-108.25 169.5,-118.21 139.23,-130.27 118.73,-138.56"/>
<polygon fill="#9a32cd" stroke="#9a32cd" points="235.48,-97.74 243.76,-91.14 233.17,-91.14 235.48,-97.74"/>
</a>
</g>
<text text-anchor="middle" x="212.88" y="-111.5" font-family="Helvetica,sans-Serif" font-size="10.00" fill="grey"> parent</text>
</g>
<!-- Node8 -->
<g id="Node000008" class="node">
<title>Node8</title>
<g id="a_Node000008"><a xlink:href="classNavigation.html" target="_top" xlink:title="GTK navigation bar with left, center, and right controls.">
<polygon fill="white" stroke="#666666" points="308.25,-20.75 239,-20.75 239,0 308.25,0 308.25,-20.75"/>
<text text-anchor="middle" x="273.62" y="-7.25" font-family="Helvetica,sans-Serif" font-size="10.00">Navigation</text>
</a>
</g>
</g>
<!-- Node3&#45;&gt;Node8 -->
<g id="edge8_Node000008_Node000003" class="edge">
<title>Node3&#45;&gt;Node8</title>
<g id="a_edge8_Node000008_Node000003"><a xlink:title=" ">
<path fill="none" stroke="#9a32cd" stroke-dasharray="5,2" d="M249.02,-61.57C246.23,-58.54 243.8,-55.17 242.12,-51.5 236.84,-39.9 247.46,-28.65 257.78,-21.03"/>
<polygon fill="#9a32cd" stroke="#9a32cd" points="246.56,-64.06 256.34,-68.13 251.24,-58.85 246.56,-64.06"/>
</a>
</g>
<text text-anchor="middle" x="258.88" y="-42" font-family="Helvetica,sans-Serif" font-size="10.00" fill="grey"> parent</text>
</g>
<!-- Node4 -->
<g id="Node000004" class="node">
<title>Node4</title>
<g id="a_Node000004"><a xlink:href="classArcFace.html" target="_top" xlink:title=" ">
<polygon fill="white" stroke="#bfbfbf" points="250.38,-159.75 196.88,-159.75 196.88,-139 250.38,-139 250.38,-159.75"/>
<text text-anchor="middle" x="223.62" y="-146.25" font-family="Helvetica,sans-Serif" font-size="10.00">ArcFace</text>
</a>
</g>
</g>
<!-- Node4&#45;&gt;Node3 -->
<g id="edge3_Node000003_Node000004" class="edge">
<title>Node4&#45;&gt;Node3</title>
<g id="a_edge3_Node000003_Node000004"><a xlink:title=" ">
<path fill="none" stroke="#9a32cd" stroke-dasharray="5,2" d="M231.27,-128.16C234.29,-121.49 238.11,-114.25 242.62,-108.25 247.63,-101.59 254.47,-95.35 260.44,-90.51"/>
<polygon fill="#9a32cd" stroke="#9a32cd" points="228.15,-126.55 227.58,-137.13 234.62,-129.22 228.15,-126.55"/>
</a>
</g>
<text text-anchor="middle" x="262.12" y="-111.5" font-family="Helvetica,sans-Serif" font-size="10.00" fill="grey"> arcface</text>
</g>
<!-- Node5 -->
<g id="Node000005" class="node">
<title>Node5</title>
<g id="a_Node000005"><a xlink:href="classFaceAligner.html" target="_top" xlink:title=" ">
<polygon fill="white" stroke="#bfbfbf" points="340.75,-159.75 268.5,-159.75 268.5,-139 340.75,-139 340.75,-159.75"/>
<text text-anchor="middle" x="304.62" y="-146.25" font-family="Helvetica,sans-Serif" font-size="10.00">FaceAligner</text>
</a>
</g>
</g>
<!-- Node5&#45;&gt;Node3 -->
<g id="edge4_Node000003_Node000005" class="edge">
<title>Node5&#45;&gt;Node3</title>
<g id="a_edge4_Node000003_Node000005"><a xlink:title=" ">
<path fill="none" stroke="#9a32cd" stroke-dasharray="5,2" d="M295.42,-128.33C289.69,-115.85 282.57,-100.35 278.06,-90.53"/>
<polygon fill="#9a32cd" stroke="#9a32cd" points="292.2,-129.7 299.55,-137.33 298.56,-126.78 292.2,-129.7"/>
</a>
</g>
<text text-anchor="middle" x="323.12" y="-111.5" font-family="Helvetica,sans-Serif" font-size="10.00" fill="grey"> face_aligner</text>
</g>
<!-- Node6 -->
<g id="Node000006" class="node">
<title>Node6</title>
<g id="a_Node000006"><a xlink:href="classSystemMonitor.html" target="_top" xlink:title=" ">
<polygon fill="white" stroke="#bfbfbf" points="448.75,-159.75 358.5,-159.75 358.5,-139 448.75,-139 448.75,-159.75"/>
<text text-anchor="middle" x="403.62" y="-146.25" font-family="Helvetica,sans-Serif" font-size="10.00">SystemMonitor</text>
</a>
</g>
</g>
<!-- Node6&#45;&gt;Node3 -->
<g id="edge5_Node000003_Node000006" class="edge">
<title>Node6&#45;&gt;Node3</title>
<g id="a_edge5_Node000003_Node000006"><a xlink:title=" ">
<path fill="none" stroke="#9a32cd" stroke-dasharray="5,2" d="M386.87,-130.37C378.92,-122.68 368.92,-114.14 358.62,-108.25 344.5,-100.16 327.66,-94.1 312.71,-89.77"/>
<polygon fill="#9a32cd" stroke="#9a32cd" points="384.3,-132.76 393.82,-137.43 389.29,-127.84 384.3,-132.76"/>
</a>
</g>
<text text-anchor="middle" x="416.88" y="-111.5" font-family="Helvetica,sans-Serif" font-size="10.00" fill="grey"> system_monitor</text>
</g>
<!-- Node7 -->
<g id="Node000007" class="node">
<title>Node7</title>
<g id="a_Node000007"><a xlink:href="structCupMeasurement.html" target="_top" xlink:title="Hasil estimasi volume dan ukuran gelas dari satu siklus deteksi.">
<polygon fill="white" stroke="#666666" points="568.75,-159.75 466.5,-159.75 466.5,-139 568.75,-139 568.75,-159.75"/>
<text text-anchor="middle" x="517.62" y="-146.25" font-family="Helvetica,sans-Serif" font-size="10.00">CupMeasurement</text>
</a>
</g>
</g>
<!-- Node7&#45;&gt;Node3 -->
<g id="edge6_Node000003_Node000007" class="edge">
<title>Node7&#45;&gt;Node3</title>
<g id="a_edge6_Node000003_Node000007"><a xlink:title=" ">
<path fill="none" stroke="#9a32cd" stroke-dasharray="5,2" d="M498.98,-131.22C488.93,-122.95 475.9,-113.66 462.62,-108.25 413.5,-88.23 351.95,-82.54 312.7,-81.09"/>
<polygon fill="#9a32cd" stroke="#9a32cd" points="496.61,-133.8 506.47,-137.7 501.2,-128.51 496.61,-133.8"/>
</a>
</g>
<text text-anchor="middle" x="543.12" y="-111.5" font-family="Helvetica,sans-Serif" font-size="10.00" fill="grey"> last_cup_measurement</text>
</g>
<!-- Node8&#45;&gt;Node3 -->
<g id="edge7_Node000003_Node000008" class="edge">
<title>Node8&#45;&gt;Node3</title>
<g id="a_edge7_Node000003_Node000008"><a xlink:title=" ">
<path fill="none" stroke="#9a32cd" stroke-dasharray="5,2" d="M279.53,-32.22C279.97,-34.41 280.36,-36.62 280.62,-38.75 281.33,-44.37 281.33,-45.88 280.62,-51.5 279.88,-57.44 278.25,-63.93 276.76,-69.11"/>
<polygon fill="#9a32cd" stroke="#9a32cd" points="282.95,-31.46 277.12,-22.61 276.15,-33.16 282.95,-31.46"/>
</a>
</g>
<text text-anchor="middle" x="308" y="-42" font-family="Helvetica,sans-Serif" font-size="10.00" fill="grey"> navigation</text>
</g>
</g>
</svg>

<g id="navigator" transform="translate(0 0)" fill="#404254">
  <rect fill="#f2f5e9" fill-opacity="0.5" stroke="#606060" stroke-width=".5" x="0" y="0" width="60" height="60"/>
  <use id="zoomplus" xlink:href="#zoomPlus" x="17" y="9" onmousedown="handleZoom(evt,'in')"/>
  <use id="zoomminus" xlink:href="#zoomMin" x="42" y="9" onmousedown="handleZoom(evt,'out')"/>
  <use id="reset" xlink:href="#resetDef" x="30" y="36" onmousedown="handleReset()"/>
   <use id="arrowup" xlink:href="#arrowUp" x="0" y="0" onmousedown="handlePan(0,-1)"/>
  <use id="arrowright" xlink:href="#arrowRight" x="0" y="0" onmousedown="handlePan(1,0)"/>
  <use id="arrowdown" xlink:href="#arrowDown" x="0" y="0" onmousedown="handlePan(0,1)"/>
  <use id="arrowleft" xlink:href="#arrowLeft" x="0" y="0" onmousedown="handlePan(-1,0)"/>
</g>
<svg viewBox="0 0 15 15" width="100%" height="30px" preserveAspectRatio="xMaxYMin meet">
 <g id="arrow_out" transform="scale(0.3 0.3)">
  <a xlink:href="classCoffeePreferencePage__coll__graph_org.svg" target="_base">
   <rect id="button" ry="5" rx="5" y="6" x="6" height="38" width="38"
        fill="#f2f5e9" fill-opacity="0.5" stroke="#606060" stroke-width="1.0"/>
   <path id="arrow"
     d="M 11.500037,31.436501 C 11.940474,20.09759 22.043105,11.32322 32.158766,21.979434 L 37.068811,17.246167 C 37.068811,17.246167 37.088388,32 37.088388,32 L 22.160133,31.978069 C 22.160133,31.978069 26.997745,27.140456 26.997745,27.140456 C 18.528582,18.264221 13.291696,25.230495 11.500037,31.436501 z"
     style="fill:#404040;"/>
  </a>
 </g>
</svg>

<style type='text/css'>
<![CDATA[
[data-mouse-over-selected='false'] { opacity: 0.7; }
[data-mouse-over-selected='true']  { opacity: 1.0; }
]]>
</style>
<script type="application/ecmascript"><![CDATA[
document.addEventListener('DOMContentLoaded', (event) => {
  highlightEdges();
  highlightAdjacentNodes();
});
]]></script>
</svg>
