<?xml version="1.0" encoding="UTF-8" standalone="no"?>
<!DOCTYPE svg PUBLIC "-//W3C//DTD SVG 1.1//EN"
 "http://www.w3.org/Graphics/SVG/1.1/DTD/svg11.dtd">
<!-- Generated by graphviz version 12.0.0 (20240803.0821)
 -->
<!-- Title: HeatingPage Pages: 1 -->
<svg width="587pt" height="168pt"
 viewBox="0.00 0.00 586.75 167.75" xmlns="http://www.w3.org/2000/svg" xmlns:xlink="http://www.w3.org/1999/xlink">
<g id="graph0" class="graph" transform="scale(1 1) rotate(0) translate(4 163.75)">
<title>HeatingPage</title>
<!-- Node1 -->
<g id="Node000001" class="node">
<title>Node1</title>
<g id="a_Node000001"><a xlink:title=" ">
<polygon fill="#999999" stroke="#666666" points="77.5,-90.25 0,-90.25 0,-69.5 77.5,-69.5 77.5,-90.25"/>
<text text-anchor="middle" x="38.75" y="-76.75" font-family="Helvetica,sans-Serif" font-size="10.00">HeatingPage</text>
</a>
</g>
</g>
<!-- Node2 -->
<g id="Node000002" class="node">
<title>Node2</title>
<g id="a_Node000002"><a xlink:href="classPageStack.html" target="_top" xlink:title="Base class for all UI pages inside the application&#39;s view stack.">
<polygon fill="white" stroke="#666666" points="104.88,-159.75 38.62,-159.75 38.62,-139 104.88,-139 104.88,-159.75"/>
<text text-anchor="middle" x="71.75" y="-146.25" font-family="Helvetica,sans-Serif" font-size="10.00">PageStack</text>
</a>
</g>
</g>
<!-- Node2&#45;&gt;Node1 -->
<g id="edge1_Node000001_Node000002" class="edge">
<title>Node2&#45;&gt;Node1</title>
<g id="a_edge1_Node000001_Node000002"><a xlink:title=" ">
<path fill="none" stroke="#63b8ff" d="M57.61,-129.4C55.86,-126.65 54.18,-123.8 52.75,-121 47.73,-111.14 43.78,-99.06 41.38,-90.74"/>
<polygon fill="#63b8ff" stroke="#63b8ff" points="54.59,-131.18 63.17,-137.4 60.34,-127.19 54.59,-131.18"/>
</a>
</g>
</g>
<!-- Node3 -->
<g id="Node000003" class="node">
<title>Node3</title>
<g id="a_Node000003"><a xlink:href="classRootWindow.html" target="_top" xlink:title=" ">
<polygon fill="white" stroke="#bfbfbf" points="289.5,-90.25 212,-90.25 212,-69.5 289.5,-69.5 289.5,-90.25"/>
<text text-anchor="middle" x="250.75" y="-76.75" font-family="Helvetica,sans-Serif" font-size="10.00">RootWindow</text>
</a>
</g>
</g>
<!-- Node2&#45;&gt;Node3 -->
<g id="edge9_Node000003_Node000002" class="edge">
<title>Node2&#45;&gt;Node3</title>
<g id="a_edge9_Node000003_Node000002"><a xlink:title=" ">
<path fill="none" stroke="#9a32cd" stroke-dasharray="5,2" d="M66.17,-127.46C65.6,-120.63 66.52,-113.47 71,-108.25 88.74,-87.6 164.19,-82.35 211.52,-81.12"/>
<polygon fill="#9a32cd" stroke="#9a32cd" points="62.69,-127.89 67.97,-137.08 69.57,-126.6 62.69,-127.89"/>
</a>
</g>
<text text-anchor="middle" x="105.12" y="-111.5" font-family="Helvetica,sans-Serif" font-size="10.00" fill="grey"> current_page</text>
</g>
<!-- Node3&#45;&gt;Node2 -->
<g id="edge2_Node000002_Node000003" class="edge">
<title>Node3&#45;&gt;Node2</title>
<g id="a_edge2_Node000002_Node000003"><a xlink:title=" ">
<path fill="none" stroke="#9a32cd" stroke-dasharray="5,2" d="M211.48,-94.43C199.2,-98.75 185.63,-103.62 173.25,-108.25 146.63,-118.21 116.36,-130.27 95.85,-138.56"/>
<polygon fill="#9a32cd" stroke="#9a32cd" points="212.61,-97.74 220.89,-91.14 210.29,-91.14 212.61,-97.74"/>
</a>
</g>
<text text-anchor="middle" x="190" y="-111.5" font-family="Helvetica,sans-Serif" font-size="10.00" fill="grey"> parent</text>
</g>
<!-- Node8 -->
<g id="Node000008" class="node">
<title>Node8</title>
<g id="a_Node000008"><a xlink:href="classNavigation.html" target="_top" xlink:title="GTK navigation bar with left, center, and right controls.">
<polygon fill="white" stroke="#666666" points="285.38,-20.75 216.12,-20.75 216.12,0 285.38,0 285.38,-20.75"/>
<text text-anchor="middle" x="250.75" y="-7.25" font-family="Helvetica,sans-Serif" font-size="10.00">Navigation</text>
</a>
</g>
</g>
<!-- Node3&#45;&gt;Node8 -->
<g id="edge8_Node000008_Node000003" class="edge">
<title>Node3&#45;&gt;Node8</title>
<g id="a_edge8_Node000008_Node000003"><a xlink:title=" ">
<path fill="none" stroke="#9a32cd" stroke-dasharray="5,2" d="M226.15,-61.57C223.36,-58.54 220.92,-55.17 219.25,-51.5 213.96,-39.9 224.59,-28.65 234.9,-21.03"/>
<polygon fill="#9a32cd" stroke="#9a32cd" points="223.69,-64.06 233.47,-68.13 228.36,-58.85 223.69,-64.06"/>
</a>
</g>
<text text-anchor="middle" x="236" y="-42" font-family="Helvetica,sans-Serif" font-size="10.00" fill="grey"> parent</text>
</g>
<!-- Node4 -->
<g id="Node000004" class="node">
<title>Node4</title>
<g id="a_Node000004"><a xlink:href="classArcFace.html" target="_top" xlink:title=" ">
<polygon fill="white" stroke="#bfbfbf" points="227.5,-159.75 174,-159.75 174,-139 227.5,-139 227.5,-159.75"/>
<text text-anchor="middle" x="200.75" y="-146.25" font-family="Helvetica,sans-Serif" font-size="10.00">ArcFace</text>
</a>
</g>
</g>
<!-- Node4&#45;&gt;Node3 -->
<g id="edge3_Node000003_Node000004" class="edge">
<title>Node4&#45;&gt;Node3</title>
<g id="a_edge3_Node000003_Node000004"><a xlink:title=" ">
<path fill="none" stroke="#9a32cd" stroke-dasharray="5,2" d="M208.4,-128.16C211.41,-121.49 215.24,-114.25 219.75,-108.25 224.76,-101.59 231.59,-95.35 237.57,-90.51"/>
<polygon fill="#9a32cd" stroke="#9a32cd" points="205.28,-126.55 204.7,-137.13 211.75,-129.22 205.28,-126.55"/>
</a>
</g>
<text text-anchor="middle" x="239.25" y="-111.5" font-family="Helvetica,sans-Serif" font-size="10.00" fill="grey"> arcface</text>
</g>
<!-- Node5 -->
<g id="Node000005" class="node">
<title>Node5</title>
<g id="a_Node000005"><a xlink:href="classFaceAligner.html" target="_top" xlink:title=" ">
<polygon fill="white" stroke="#bfbfbf" points="317.88,-159.75 245.62,-159.75 245.62,-139 317.88,-139 317.88,-159.75"/>
<text text-anchor="middle" x="281.75" y="-146.25" font-family="Helvetica,sans-Serif" font-size="10.00">FaceAligner</text>
</a>
</g>
</g>
<!-- Node5&#45;&gt;Node3 -->
<g id="edge4_Node000003_Node000005" class="edge">
<title>Node5&#45;&gt;Node3</title>
<g id="a_edge4_Node000003_Node000005"><a xlink:title=" ">
<path fill="none" stroke="#9a32cd" stroke-dasharray="5,2" d="M272.55,-128.33C266.81,-115.85 259.69,-100.35 255.18,-90.53"/>
<polygon fill="#9a32cd" stroke="#9a32cd" points="269.32,-129.7 276.68,-137.33 275.68,-126.78 269.32,-129.7"/>
</a>
</g>
<text text-anchor="middle" x="300.25" y="-111.5" font-family="Helvetica,sans-Serif" font-size="10.00" fill="grey"> face_aligner</text>
</g>
<!-- Node6 -->
<g id="Node000006" class="node">
<title>Node6</title>
<g id="a_Node000006"><a xlink:href="classSystemMonitor.html" target="_top" xlink:title=" ">
<polygon fill="white" stroke="#bfbfbf" points="425.88,-159.75 335.62,-159.75 335.62,-139 425.88,-139 425.88,-159.75"/>
<text text-anchor="middle" x="380.75" y="-146.25" font-family="Helvetica,sans-Serif" font-size="10.00">SystemMonitor</text>
</a>
</g>
</g>
<!-- Node6&#45;&gt;Node3 -->
<g id="edge5_Node000003_Node000006" class="edge">
<title>Node6&#45;&gt;Node3</title>
<g id="a_edge5_Node000003_Node000006"><a xlink:title=" ">
<path fill="none" stroke="#9a32cd" stroke-dasharray="5,2" d="M363.99,-130.37C356.05,-122.68 346.05,-114.14 335.75,-108.25 321.62,-100.16 304.78,-94.1 289.84,-89.77"/>
<polygon fill="#9a32cd" stroke="#9a32cd" points="361.43,-132.76 370.94,-137.43 366.42,-127.84 361.43,-132.76"/>
</a>
</g>
<text text-anchor="middle" x="394" y="-111.5" font-family="Helvetica,sans-Serif" font-size="10.00" fill="grey"> system_monitor</text>
</g>
<!-- Node7 -->
<g id="Node000007" class="node">
<title>Node7</title>
<g id="a_Node000007"><a xlink:href="structCupMeasurement.html" target="_top" xlink:title="Hasil estimasi volume dan ukuran gelas dari satu siklus deteksi.">
<polygon fill="white" stroke="#666666" points="545.88,-159.75 443.62,-159.75 443.62,-139 545.88,-139 545.88,-159.75"/>
<text text-anchor="middle" x="494.75" y="-146.25" font-family="Helvetica,sans-Serif" font-size="10.00">CupMeasurement</text>
</a>
</g>
</g>
<!-- Node7&#45;&gt;Node3 -->
<g id="edge6_Node000003_Node000007" class="edge">
<title>Node7&#45;&gt;Node3</title>
<g id="a_edge6_Node000003_Node000007"><a xlink:title=" ">
<path fill="none" stroke="#9a32cd" stroke-dasharray="5,2" d="M476.11,-131.22C466.06,-122.95 453.02,-113.66 439.75,-108.25 390.63,-88.23 329.08,-82.54 289.83,-81.09"/>
<polygon fill="#9a32cd" stroke="#9a32cd" points="473.74,-133.8 483.59,-137.7 478.32,-128.51 473.74,-133.8"/>
</a>
</g>
<text text-anchor="middle" x="520.25" y="-111.5" font-family="Helvetica,sans-Serif" font-size="10.00" fill="grey"> last_cup_measurement</text>
</g>
<!-- Node8&#45;&gt;Node3 -->
<g id="edge7_Node000003_Node000008" class="edge">
<title>Node8&#45;&gt;Node3</title>
<g id="a_edge7_Node000003_Node000008"><a xlink:title=" ">
<path fill="none" stroke="#9a32cd" stroke-dasharray="5,2" d="M256.65,-32.22C257.1,-34.41 257.48,-36.62 257.75,-38.75 258.46,-44.37 258.46,-45.88 257.75,-51.5 257,-57.44 255.38,-63.93 253.88,-69.11"/>
<polygon fill="#9a32cd" stroke="#9a32cd" points="260.07,-31.46 254.25,-22.61 253.28,-33.16 260.07,-31.46"/>
</a>
</g>
<text text-anchor="middle" x="285.12" y="-42" font-family="Helvetica,sans-Serif" font-size="10.00" fill="grey"> navigation</text>
</g>
</g>
</svg>
