<?xml version="1.0" encoding="UTF-8" standalone="no"?>
<!DOCTYPE svg PUBLIC "-//W3C//DTD SVG 1.1//EN"
 "http://www.w3.org/Graphics/SVG/1.1/DTD/svg11.dtd">
<!-- Generated by graphviz version 12.0.0 (20240803.0821)
 -->
<!-- Title: GuestMember Pages: 1 -->
<svg width="591pt" height="168pt"
 viewBox="0.00 0.00 590.50 167.75" xmlns="http://www.w3.org/2000/svg" xmlns:xlink="http://www.w3.org/1999/xlink">
<g id="graph0" class="graph" transform="scale(1 1) rotate(0) translate(4 163.75)">
<title>GuestMember</title>
<!-- Node1 -->
<g id="Node000001" class="node">
<title>Node1</title>
<g id="a_Node000001"><a xlink:title=" ">
<polygon fill="#999999" stroke="#666666" points="85,-90.25 0,-90.25 0,-69.5 85,-69.5 85,-90.25"/>
<text text-anchor="middle" x="42.5" y="-76.75" font-family="Helvetica,sans-Serif" font-size="10.00">GuestMember</text>
</a>
</g>
</g>
<!-- Node2 -->
<g id="Node000002" class="node">
<title>Node2</title>
<g id="a_Node000002"><a xlink:href="classPageStack.html" target="_top" xlink:title="Base class for all UI pages inside the application&#39;s view stack.">
<polygon fill="white" stroke="#666666" points="108.62,-159.75 42.38,-159.75 42.38,-139 108.62,-139 108.62,-159.75"/>
<text text-anchor="middle" x="75.5" y="-146.25" font-family="Helvetica,sans-Serif" font-size="10.00">PageStack</text>
</a>
</g>
</g>
<!-- Node2&#45;&gt;Node1 -->
<g id="edge1_Node000001_Node000002" class="edge">
<title>Node2&#45;&gt;Node1</title>
<g id="a_edge1_Node000001_Node000002"><a xlink:title=" ">
<path fill="none" stroke="#63b8ff" d="M61.36,-129.4C59.61,-126.65 57.93,-123.8 56.5,-121 51.48,-111.14 47.53,-99.06 45.13,-90.74"/>
<polygon fill="#63b8ff" stroke="#63b8ff" points="58.34,-131.18 66.92,-137.4 64.09,-127.19 58.34,-131.18"/>
</a>
</g>
</g>
<!-- Node3 -->
<g id="Node000003" class="node">
<title>Node3</title>
<g id="a_Node000003"><a xlink:href="classRootWindow.html" target="_top" xlink:title=" ">
<polygon fill="white" stroke="#bfbfbf" points="293.25,-90.25 215.75,-90.25 215.75,-69.5 293.25,-69.5 293.25,-90.25"/>
<text text-anchor="middle" x="254.5" y="-76.75" font-family="Helvetica,sans-Serif" font-size="10.00">RootWindow</text>
</a>
</g>
</g>
<!-- Node2&#45;&gt;Node3 -->
<g id="edge9_Node000003_Node000002" class="edge">
<title>Node2&#45;&gt;Node3</title>
<g id="a_edge9_Node000003_Node000002"><a xlink:title=" ">
<path fill="none" stroke="#9a32cd" stroke-dasharray="5,2" d="M69.92,-127.46C69.35,-120.63 70.27,-113.47 74.75,-108.25 92.49,-87.6 167.94,-82.35 215.27,-81.12"/>
<polygon fill="#9a32cd" stroke="#9a32cd" points="66.44,-127.89 71.72,-137.08 73.32,-126.6 66.44,-127.89"/>
</a>
</g>
<text text-anchor="middle" x="108.88" y="-111.5" font-family="Helvetica,sans-Serif" font-size="10.00" fill="grey"> current_page</text>
</g>
<!-- Node3&#45;&gt;Node2 -->
<g id="edge2_Node000002_Node000003" class="edge">
<title>Node3&#45;&gt;Node2</title>
<g id="a_edge2_Node000002_Node000003"><a xlink:title=" ">
<path fill="none" stroke="#9a32cd" stroke-dasharray="5,2" d="M215.23,-94.43C202.95,-98.75 189.38,-103.62 177,-108.25 150.38,-118.21 120.11,-130.27 99.6,-138.56"/>
<polygon fill="#9a32cd" stroke="#9a32cd" points="216.36,-97.74 224.64,-91.14 214.04,-91.14 216.36,-97.74"/>
</a>
</g>
<text text-anchor="middle" x="193.75" y="-111.5" font-family="Helvetica,sans-Serif" font-size="10.00" fill="grey"> parent</text>
</g>
<!-- Node8 -->
<g id="Node000008" class="node">
<title>Node8</title>
<g id="a_Node000008"><a xlink:href="classNavigation.html" target="_top" xlink:title="GTK navigation bar with left, center, and right controls.">
<polygon fill="white" stroke="#666666" points="289.12,-20.75 219.88,-20.75 219.88,0 289.12,0 289.12,-20.75"/>
<text text-anchor="middle" x="254.5" y="-7.25" font-family="Helvetica,sans-Serif" font-size="10.00">Navigation</text>
</a>
</g>
</g>
<!-- Node3&#45;&gt;Node8 -->
<g id="edge8_Node000008_Node000003" class="edge">
<title>Node3&#45;&gt;Node8</title>
<g id="a_edge8_Node000008_Node000003"><a xlink:title=" ">
<path fill="none" stroke="#9a32cd" stroke-dasharray="5,2" d="M229.9,-61.57C227.11,-58.54 224.67,-55.17 223,-51.5 217.71,-39.9 228.34,-28.65 238.65,-21.03"/>
<polygon fill="#9a32cd" stroke="#9a32cd" points="227.44,-64.06 237.22,-68.13 232.11,-58.85 227.44,-64.06"/>
</a>
</g>
<text text-anchor="middle" x="239.75" y="-42" font-family="Helvetica,sans-Serif" font-size="10.00" fill="grey"> parent</text>
</g>
<!-- Node4 -->
<g id="Node000004" class="node">
<title>Node4</title>
<g id="a_Node000004"><a xlink:href="classArcFace.html" target="_top" xlink:title=" ">
<polygon fill="white" stroke="#bfbfbf" points="231.25,-159.75 177.75,-159.75 177.75,-139 231.25,-139 231.25,-159.75"/>
<text text-anchor="middle" x="204.5" y="-146.25" font-family="Helvetica,sans-Serif" font-size="10.00">ArcFace</text>
</a>
</g>
</g>
<!-- Node4&#45;&gt;Node3 -->
<g id="edge3_Node000003_Node000004" class="edge">
<title>Node4&#45;&gt;Node3</title>
<g id="a_edge3_Node000003_Node000004"><a xlink:title=" ">
<path fill="none" stroke="#9a32cd" stroke-dasharray="5,2" d="M212.15,-128.16C215.16,-121.49 218.99,-114.25 223.5,-108.25 228.51,-101.59 235.34,-95.35 241.32,-90.51"/>
<polygon fill="#9a32cd" stroke="#9a32cd" points="209.03,-126.55 208.45,-137.13 215.5,-129.22 209.03,-126.55"/>
</a>
</g>
<text text-anchor="middle" x="243" y="-111.5" font-family="Helvetica,sans-Serif" font-size="10.00" fill="grey"> arcface</text>
</g>
<!-- Node5 -->
<g id="Node000005" class="node">
<title>Node5</title>
<g id="a_Node000005"><a xlink:href="classFaceAligner.html" target="_top" xlink:title=" ">
<polygon fill="white" stroke="#bfbfbf" points="321.62,-159.75 249.38,-159.75 249.38,-139 321.62,-139 321.62,-159.75"/>
<text text-anchor="middle" x="285.5" y="-146.25" font-family="Helvetica,sans-Serif" font-size="10.00">FaceAligner</text>
</a>
</g>
</g>
<!-- Node5&#45;&gt;Node3 -->
<g id="edge4_Node000003_Node000005" class="edge">
<title>Node5&#45;&gt;Node3</title>
<g id="a_edge4_Node000003_Node000005"><a xlink:title=" ">
<path fill="none" stroke="#9a32cd" stroke-dasharray="5,2" d="M276.3,-128.33C270.56,-115.85 263.44,-100.35 258.93,-90.53"/>
<polygon fill="#9a32cd" stroke="#9a32cd" points="273.07,-129.7 280.43,-137.33 279.43,-126.78 273.07,-129.7"/>
</a>
</g>
<text text-anchor="middle" x="304" y="-111.5" font-family="Helvetica,sans-Serif" font-size="10.00" fill="grey"> face_aligner</text>
</g>
<!-- Node6 -->
<g id="Node000006" class="node">
<title>Node6</title>
<g id="a_Node000006"><a xlink:href="classSystemMonitor.html" target="_top" xlink:title=" ">
<polygon fill="white" stroke="#bfbfbf" points="429.62,-159.75 339.38,-159.75 339.38,-139 429.62,-139 429.62,-159.75"/>
<text text-anchor="middle" x="384.5" y="-146.25" font-family="Helvetica,sans-Serif" font-size="10.00">SystemMonitor</text>
</a>
</g>
</g>
<!-- Node6&#45;&gt;Node3 -->
<g id="edge5_Node000003_Node000006" class="edge">
<title>Node6&#45;&gt;Node3</title>
<g id="a_edge5_Node000003_Node000006"><a xlink:title=" ">
<path fill="none" stroke="#9a32cd" stroke-dasharray="5,2" d="M367.74,-130.37C359.8,-122.68 349.8,-114.14 339.5,-108.25 325.37,-100.16 308.53,-94.1 293.59,-89.77"/>
<polygon fill="#9a32cd" stroke="#9a32cd" points="365.18,-132.76 374.69,-137.43 370.17,-127.84 365.18,-132.76"/>
</a>
</g>
<text text-anchor="middle" x="397.75" y="-111.5" font-family="Helvetica,sans-Serif" font-size="10.00" fill="grey"> system_monitor</text>
</g>
<!-- Node7 -->
<g id="Node000007" class="node">
<title>Node7</title>
<g id="a_Node000007"><a xlink:href="structCupMeasurement.html" target="_top" xlink:title="Hasil estimasi volume dan ukuran gelas dari satu siklus deteksi.">
<polygon fill="white" stroke="#666666" points="549.62,-159.75 447.38,-159.75 447.38,-139 549.62,-139 549.62,-159.75"/>
<text text-anchor="middle" x="498.5" y="-146.25" font-family="Helvetica,sans-Serif" font-size="10.00">CupMeasurement</text>
</a>
</g>
</g>
<!-- Node7&#45;&gt;Node3 -->
<g id="edge6_Node000003_Node000007" class="edge">
<title>Node7&#45;&gt;Node3</title>
<g id="a_edge6_Node000003_Node000007"><a xlink:title=" ">
<path fill="none" stroke="#9a32cd" stroke-dasharray="5,2" d="M479.86,-131.22C469.81,-122.95 456.77,-113.66 443.5,-108.25 394.38,-88.23 332.83,-82.54 293.58,-81.09"/>
<polygon fill="#9a32cd" stroke="#9a32cd" points="477.49,-133.8 487.34,-137.7 482.07,-128.51 477.49,-133.8"/>
</a>
</g>
<text text-anchor="middle" x="524" y="-111.5" font-family="Helvetica,sans-Serif" font-size="10.00" fill="grey"> last_cup_measurement</text>
</g>
<!-- Node8&#45;&gt;Node3 -->
<g id="edge7_Node000003_Node000008" class="edge">
<title>Node8&#45;&gt;Node3</title>
<g id="a_edge7_Node000003_Node000008"><a xlink:title=" ">
<path fill="none" stroke="#9a32cd" stroke-dasharray="5,2" d="M260.4,-32.22C260.85,-34.41 261.23,-36.62 261.5,-38.75 262.21,-44.37 262.21,-45.88 261.5,-51.5 260.75,-57.44 259.13,-63.93 257.63,-69.11"/>
<polygon fill="#9a32cd" stroke="#9a32cd" points="263.82,-31.46 258,-22.61 257.03,-33.16 263.82,-31.46"/>
</a>
</g>
<text text-anchor="middle" x="288.88" y="-42" font-family="Helvetica,sans-Serif" font-size="10.00" fill="grey"> navigation</text>
</g>
</g>
</svg>
